<?xml version="1.0" encoding="utf-8"?>
<!-- Generator: Adobe Illustrator 24.1.1, SVG Export Plug-In . SVG Version: 6.00 Build 0)  -->
<svg version="1.1" id="Layer_1" xmlns="http://www.w3.org/2000/svg" xmlns:xlink="http://www.w3.org/1999/xlink" x="0px" y="0px"
	 viewBox="0 0 1280 1024" style="enable-background:new 0 0 1280 1024;" xml:space="preserve">
<style type="text/css">
	.st0{fill:#6D6A6B;}
	.st1{fill:#F26242;}
</style>
<g>
	<g>
		<g>
			<path class="st0" d="M515.87,473.93c15.56,0,27.63,6.14,35.61,17.4V433.4h31.32v151.87h-31.32V569.1
				c-7.78,11.26-19.65,17.4-34.79,17.4c-31.32,0-51.99-22.72-51.99-56.7C464.7,496.24,485.17,473.93,515.87,473.93z M524.06,561.12
				c16.17,0,27.43-12.49,27.43-30.5c0-18.01-11.26-30.5-27.43-30.5c-16.37,0-27.63,12.69-27.84,30.5
				C496.43,548.63,507.48,561.12,524.06,561.12z"/>
			<path class="st0" d="M650.37,474.13c35.2,0,58.95,22.31,58.95,56.08c0,33.57-23.74,56.29-58.95,56.29
				c-35.41,0-59.15-22.72-59.15-56.29C591.22,496.44,614.96,474.13,650.37,474.13z M650.37,560.92c16.17,0,27.43-12.28,27.43-30.29
				c0-18.01-11.26-30.29-27.43-30.29c-16.37,0-27.43,12.28-27.43,30.29C622.95,548.63,634,560.92,650.37,560.92z"/>
			<path class="st0" d="M773.01,474.13c21.08,0,37.86,8.39,47.69,23.13l-21.29,15.35c-5.94-7.37-14.33-11.87-25.17-11.67
				c-15.35,0-26.2,11.87-26.2,29.47c0,17.81,10.85,29.88,26.2,29.88c11.26,0,20.06-4.3,25.58-12.89l21.7,14.74
				c-9.21,15.35-26.4,24.36-48.92,24.36c-33.36,0-56.08-22.51-56.08-55.88C716.52,496.85,739.24,474.13,773.01,474.13z"/>
			<path class="st1" d="M871.17,519.16h30.29v-2.05c0-11.67-7.78-18.42-22.92-18.42c-9.82,0-21.29,3.27-32.75,9.62l-9.82-21.7
				c16.37-8.19,30.5-12.69,49.74-12.69c29.47,0,46.46,14.74,46.67,39.5l0.2,71.84h-30.91v-12.89c-7.37,9.21-19.24,14.33-34.59,14.33
				c-23.54,0-37.86-14.33-37.86-34.39C829.21,531.65,844.16,519.37,871.17,519.16z M875.88,564.19c13.3,0,23.74-7.16,25.58-16.58
				v-9.82H876.7c-12.08,0-18.01,3.68-18.01,12.49C858.69,558.66,865.24,564.19,875.88,564.19z"/>
			<path class="st1" d="M945.25,475.16h31.52v16.17c7.78-11.05,19.85-17.19,34.8-17.19c30.91,0,51.78,22.72,51.78,56.7
				c0,33.36-20.26,55.67-51.17,55.67c-15.35,0-27.43-6.14-35.41-17.19v55.67h-31.52V475.16z M1004.2,560.3
				c16.17,0,27.22-12.49,27.22-30.5c0-17.6-11.05-30.29-27.22-30.29c-16.17,0-27.43,12.49-27.43,30.29
				C976.77,548.02,988.03,560.3,1004.2,560.3z"/>
			<path class="st1" d="M1063.87,480.07h15.35v-30.29h31.31v30.29h29.88v21.9h-29.88v45.44c0,9.21,3.89,12.89,10.64,12.69
				c4.09,0,9.01-1.43,14.74-4.09l6.55,23.13c-8.19,4.71-18.42,7.57-28.66,7.57c-19.65,0-34.59-11.26-34.59-33.98v-50.96h-15.35
				V480.07z"/>
		</g>
	</g>
	<g>
		<path class="st0" d="M343.82,444.84c-4.86,7.08-17.33,9.52-19.25,3.7c-2.23-4.22,3-11.55,9.68-14.05
			C343.34,430.57,349.61,437.54,343.82,444.84z"/>
		<path class="st0" d="M440.82,399.02H269.01c-20.46,0-44.27,15.24-53.19,34.04l-74.91,157.87c-8.92,18.8,0.44,34.04,20.89,34.04
			h171.81c20.46,0,44.27-15.24,53.19-34.04l74.91-157.87C470.63,414.26,461.27,399.02,440.82,399.02z M224.22,606.97
			c-12.3,0.35-24.37-0.91-32.14-6.83c-12.43-8.54-14.98-25.46-6.82-42.82c11.91-25.29,23.78-50.6,36.07-75.87
			c11.27-22.99,41.12-44.11,67.52-47.54c8.52-1.25,16.35-0.73,24.4-0.83c5.41-5.04,11.48-10.08,18.5-12.8
			c14.08-6.01,28.71-3.65,32.6,5.63c0.01,0.03,0.01,0.06,0.04,0.09c4.73,9.73-3.7,25.97-18.21,34.93
			c-4.81,3.16-10.06,5.35-15.13,6.48c-6.47,1.47-12.67,1.28-17.38-0.63c-2.51-1-4.6-2.49-6.08-4.47c-2.64-2.9-3.2-7.01-3.22-11.23
			c-0.01-0.46-0.01-0.91-0.01-1.36c-6.8,0.14-13.32-0.45-20.46,0.5c-0.39,0.06-0.77,0.13-1.17,0.19
			c-8.24,1.51-16.99,5.33-24.62,10.59c-5.01,3.47-9.58,7.57-13.16,12.05c-4.9,5.63-7.17,11.7-10,17.57
			c-9.19,19.44-18.42,38.88-27.67,58.33c-2.85,6.11-6.53,12.41-6.98,18.29c-1.7,12.84,7.3,22.5,21.74,22.98
			c3.07,0.08,13.88,0.12,27.25,0.12c1.1,4.76,2.52,10.65,7.57,15.27c0.5,0.45,1.02,0.91,1.55,1.35H224.22z M409.83,482.49
			c-9.86,21.25-20.17,42.54-30.17,63.81c-4.52,9.71-9.08,19.81-17.67,28.93c-16.18,18.24-43.28,32.18-64.26,30.87
			c-11.72-0.73-21.33-4.4-28.24-10.73c-6.13-5.61-4.7-14.3-8.72-21.07c-2.35-3.96-6.99-6.22-10.53-9.32
			c-11.66-10.22-10.58-29.03-4.23-47.21c6.35-18.18,17.39-36.58,24.95-54.85c6.47-0.01,12.95-0.01,19.42-0.02
			c2.87,0,5.89,0.04,7.66,1.43c2.8,2.2,1.17,7.54-2.96,11.04c-4.14,3.49-9.96,4.98-13.9,3.99c-5.48,10.76-10.22,21.54-14.2,32.26
			c-3.77,10.15-6.87,20.53-5.44,29.33c0.73,4.45,2.67,8.44,6.21,11.1c5.22,3.93,13.85,4.66,22.83,2.33
			c8.98-2.33,18.19-7.59,25.45-14.18c7.44-6.75,12.75-14.63,17.23-22.4c7.38-12.8,12.93-25.69,18.46-38.55
			c-4.88,1.11-9.27-0.48-9.91-4.03c-0.64-3.56,2.98-8.81,7.87-10.94c3.07-1.33,6.07-1.37,8.91-1.38c6.37,0,12.74-0.01,19.11-0.01
			c-4.79,10.11-9.59,20.21-14.39,30.32c-7.2,15.17-14.62,30.67-26.72,45.06c-7.01,8.33-15.8,16.2-25.64,22.29
			c-4.94,3.05-10.16,5.66-15.43,7.51c-4.67,1.64-12.77,3.48-11.52,8.7c1.92,7.99,13.82,13.8,24.19,13.2
			c18.34-1.05,40.56-16.21,48.09-32.61c12.05-25.46,24.24-50.92,36.18-76.38c7.91-18.06-4.01-32.73-24.08-31.38
			c3.31-5.55,5.74-11.15,7.5-16.67c11.19,0.2,21.8,2.19,28.57,8.02C415.39,449.82,417.62,465.91,409.83,482.49z"/>
		<path class="st1" d="M409.83,482.49c-9.86,21.25-20.17,42.54-30.17,63.81c-4.52,9.71-9.08,19.81-17.67,28.93
			c-16.18,18.24-43.28,32.18-64.26,30.87c-11.72-0.73-21.33-4.4-28.24-10.73c-6.13-5.61-4.7-14.3-8.72-21.07
			c-2.35-3.96-6.99-6.22-10.53-9.32c-11.66-10.22-10.58-29.03-4.23-47.21c6.35-18.18,17.39-36.58,24.95-54.85
			c6.47-0.01,12.95-0.01,19.42-0.02c2.87,0,5.89,0.04,7.66,1.43c2.8,2.2,1.17,7.54-2.96,11.04c-4.14,3.49-9.96,4.98-13.9,3.99
			c-5.48,10.76-10.22,21.54-14.2,32.26c-3.77,10.15-6.87,20.53-5.44,29.33c0.73,4.45,2.67,8.44,6.21,11.1
			c5.22,3.93,13.85,4.66,22.83,2.33c8.98-2.33,18.19-7.59,25.45-14.18c7.44-6.75,12.75-14.63,17.23-22.4
			c7.38-12.8,12.93-25.69,18.46-38.55c-4.88,1.11-9.27-0.48-9.91-4.03c-0.64-3.56,2.98-8.81,7.87-10.94
			c3.07-1.33,6.07-1.37,8.91-1.38c6.37,0,12.74-0.01,19.11-0.01c-4.79,10.11-9.59,20.21-14.39,30.32
			c-7.2,15.17-14.62,30.67-26.72,45.06c-7.01,8.33-15.8,16.2-25.64,22.29c-4.94,3.05-10.16,5.66-15.43,7.51
			c-4.67,1.64-12.77,3.48-11.52,8.7c1.92,7.99,13.82,13.8,24.19,13.2c18.34-1.05,40.56-16.21,48.09-32.61
			c12.05-25.46,24.24-50.92,36.18-76.38c7.91-18.06-4.01-32.73-24.08-31.38c3.31-5.55,5.74-11.15,7.5-16.67
			c11.19,0.2,21.8,2.19,28.57,8.02C415.39,449.82,417.62,465.91,409.83,482.49z"/>
		<path class="st1" d="M364.4,426c-0.02-0.03-0.02-0.06-0.04-0.09c-3.89-9.29-18.52-11.64-32.6-5.63
			c-7.02,2.72-13.09,7.76-18.5,12.8c-8.06,0.09-15.88-0.42-24.4,0.83c-26.41,3.43-56.26,24.55-67.52,47.54
			c-12.3,25.27-24.17,50.59-36.07,75.87c-8.16,17.36-5.61,34.28,6.82,42.82c7.77,5.92,19.84,7.18,32.14,6.83h34.2
			c-0.53-0.43-1.04-0.89-1.55-1.35c-5.04-4.63-6.47-10.51-7.57-15.27c-13.37,0-24.18-0.04-27.25-0.12
			c-14.45-0.48-23.44-10.14-21.74-22.98c0.45-5.87,4.13-12.18,6.98-18.29c9.26-19.45,18.48-38.89,27.67-58.33
			c2.83-5.87,5.1-11.94,10-17.57c3.59-4.49,8.15-8.58,13.16-12.05c7.63-5.26,16.38-9.08,24.62-10.59c0.4-0.06,0.78-0.14,1.17-0.19
			c7.14-0.94,13.66-0.36,20.46-0.5c-0.01,0.45-0.01,0.9,0.01,1.36c0.02,4.21,0.58,8.33,3.22,11.23c1.48,1.99,3.57,3.47,6.08,4.47
			c4.7,1.9,10.91,2.1,17.38,0.63c5.07-1.14,10.32-3.32,15.13-6.48C360.71,451.98,369.14,435.74,364.4,426z M343.82,444.84
			c-4.86,7.08-17.33,9.52-19.25,3.7c-2.23-4.22,3-11.55,9.68-14.05C343.34,430.57,349.61,437.54,343.82,444.84z"/>
	</g>
</g>
</svg>
