<?xml version="1.0" encoding="utf-8"?>
<!-- Generator: Adobe Illustrator 24.1.1, SVG Export Plug-In . SVG Version: 6.00 Build 0)  -->
<svg version="1.1" id="Layer_1" xmlns="http://www.w3.org/2000/svg" xmlns:xlink="http://www.w3.org/1999/xlink" x="0px" y="0px"
	 viewBox="0 0 1280 1024" style="enable-background:new 0 0 1280 1024;" xml:space="preserve">
<style type="text/css">
	.st0{fill:#6D6A6B;}
	.st1{fill:#F26242;}
</style>
<g>
	<g>
		<path class="st0" d="M352.29,456.74c15.56,0,27.63,6.14,35.61,17.4v-57.92h31.32v151.87H387.9v-16.17
			c-7.78,11.26-19.65,17.4-34.79,17.4c-31.32,0-51.99-22.72-51.99-56.7C301.12,479.05,321.58,456.74,352.29,456.74z M360.47,543.93
			c16.17,0,27.43-12.49,27.43-30.5c0-18.01-11.26-30.5-27.43-30.5c-16.37,0-27.63,12.69-27.84,30.5
			C332.84,531.44,343.89,543.93,360.47,543.93z"/>
		<path class="st0" d="M486.79,456.94c35.2,0,58.95,22.31,58.95,56.08c0,33.57-23.74,56.29-58.95,56.29
			c-35.41,0-59.15-22.72-59.15-56.29C427.64,479.25,451.38,456.94,486.79,456.94z M486.79,543.72c16.17,0,27.43-12.28,27.43-30.29
			c0-18.01-11.26-30.29-27.43-30.29c-16.37,0-27.43,12.28-27.43,30.29C459.36,531.44,470.41,543.72,486.79,543.72z"/>
		<path class="st0" d="M609.43,456.94c21.08,0,37.86,8.39,47.69,23.13l-21.29,15.35c-5.94-7.37-14.33-11.87-25.17-11.67
			c-15.35,0-26.2,11.87-26.2,29.47c0,17.81,10.85,29.88,26.2,29.88c11.26,0,20.06-4.3,25.58-12.89l21.7,14.74
			c-9.21,15.35-26.4,24.36-48.92,24.36c-33.36,0-56.08-22.51-56.08-55.88C552.93,479.66,575.65,456.94,609.43,456.94z"/>
		<path class="st1" d="M707.59,501.97h30.29v-2.05c0-11.67-7.78-18.42-22.92-18.42c-9.82,0-21.29,3.27-32.75,9.62l-9.82-21.7
			c16.37-8.19,30.5-12.69,49.74-12.69c29.47,0,46.46,14.74,46.67,39.5l0.2,71.84h-30.91v-12.89c-7.37,9.21-19.24,14.33-34.59,14.33
			c-23.54,0-37.86-14.33-37.86-34.39C665.63,514.46,680.57,502.17,707.59,501.97z M712.3,547c13.3,0,23.74-7.16,25.58-16.58v-9.82
			h-24.77c-12.08,0-18.01,3.68-18.01,12.49C695.1,541.47,701.65,547,712.3,547z"/>
		<path class="st1" d="M781.67,457.97h31.52v16.17c7.78-11.05,19.85-17.19,34.8-17.19c30.91,0,51.78,22.72,51.78,56.7
			c0,33.36-20.26,55.67-51.17,55.67c-15.35,0-27.43-6.14-35.41-17.19v55.67h-31.52V457.97z M840.61,543.11
			c16.17,0,27.22-12.49,27.22-30.5c0-17.6-11.05-30.29-27.22-30.29s-27.43,12.49-27.43,30.29
			C813.19,530.83,824.44,543.11,840.61,543.11z"/>
		<path class="st1" d="M900.29,462.88h15.35v-30.29h31.32v30.29h29.88v21.9h-29.88v45.44c0,9.21,3.89,12.89,10.64,12.69
			c4.09,0,9.01-1.43,14.74-4.09l6.55,23.13c-8.19,4.71-18.42,7.57-28.66,7.57c-19.65,0-34.59-11.26-34.59-33.98v-50.96h-15.35
			V462.88z"/>
	</g>
</g>
</svg>
