<?xml version="1.0" encoding="utf-8"?>
<!-- Generator: Adobe Illustrator 24.1.1, SVG Export Plug-In . SVG Version: 6.00 Build 0)  -->
<svg version="1.1" id="Layer_1" xmlns="http://www.w3.org/2000/svg" xmlns:xlink="http://www.w3.org/1999/xlink" x="0px" y="0px"
	 viewBox="0 0 1280 1024" style="enable-background:new 0 0 1280 1024;" xml:space="preserve">
<style type="text/css">
	.st0{fill:#6D6A6B;}
	.st1{fill:#F26242;}
</style>
<g>
	<path class="st0" d="M699.35,418.24c-6.78,9.88-24.19,13.29-26.88,5.17c-3.12-5.89,4.18-16.12,13.52-19.61
		C698.67,398.32,707.42,408.05,699.35,418.24z"/>
	<path class="st0" d="M834.76,354.27H594.91c-28.57,0-61.81,21.27-74.26,47.53L416.07,622.2c-12.45,26.25,0.61,47.53,29.17,47.53
		h239.86c28.57,0,61.81-21.27,74.26-47.53l104.58-220.4C876.38,375.55,863.32,354.27,834.76,354.27z M532.37,644.59
		c-17.17,0.48-34.03-1.27-44.87-9.54c-17.35-11.92-20.91-35.55-9.52-59.78c16.63-35.31,33.19-70.64,50.36-105.93
		c15.73-32.1,57.4-61.58,94.27-66.37c11.9-1.74,22.82-1.03,34.07-1.16c7.55-7.04,16.03-14.07,25.83-17.87
		c19.65-8.39,40.08-5.1,45.51,7.87c0.02,0.04,0.02,0.08,0.05,0.12c6.61,13.59-5.16,36.26-25.42,48.76
		c-6.71,4.42-14.04,7.46-21.12,9.05c-9.03,2.05-17.69,1.78-24.26-0.88c-3.51-1.4-6.43-3.47-8.49-6.25
		c-3.69-4.04-4.47-9.79-4.5-15.67c-0.02-0.64-0.02-1.27-0.01-1.9c-9.5,0.19-18.6-0.62-28.57,0.69c-0.54,0.08-1.08,0.18-1.63,0.27
		c-11.51,2.11-23.72,7.44-34.37,14.79c-7,4.85-13.37,10.56-18.38,16.83c-6.84,7.87-10.01,16.34-13.96,24.53
		c-12.83,27.14-25.71,54.29-38.63,81.43c-3.98,8.53-9.11,17.33-9.75,25.53c-2.37,17.92,10.19,31.41,30.36,32.08
		c4.28,0.11,19.38,0.17,38.04,0.17c1.53,6.65,3.52,14.87,10.56,21.32c0.7,0.63,1.42,1.28,2.16,1.88H532.37z M791.5,470.8
		c-13.76,29.67-28.15,59.39-42.11,89.08c-6.31,13.56-12.67,27.65-24.66,40.38c-22.59,25.47-60.42,44.92-89.71,43.1
		c-16.37-1.02-29.78-6.15-39.43-14.98c-8.56-7.84-6.56-19.97-12.17-29.41c-3.28-5.52-9.76-8.68-14.7-13.01
		c-16.28-14.27-14.78-40.53-5.9-65.9c8.86-25.38,24.28-51.07,34.83-76.58c9.03-0.01,18.08-0.02,27.11-0.03c4,0,8.22,0.05,10.69,1.99
		c3.91,3.08,1.64,10.53-4.13,15.41c-5.77,4.88-13.9,6.95-19.4,5.57c-7.64,15.02-14.27,30.06-19.83,45.03
		c-5.26,14.17-9.6,28.67-7.59,40.95c1.02,6.21,3.72,11.78,8.67,15.49c7.29,5.48,19.34,6.51,31.88,3.26
		c12.54-3.25,25.4-10.6,35.54-19.8c10.39-9.42,17.79-20.43,24.05-31.27c10.31-17.87,18.05-35.87,25.77-53.81
		c-6.81,1.55-12.95-0.67-13.84-5.63c-0.9-4.97,4.16-12.3,10.98-15.27c4.28-1.86,8.48-1.91,12.43-1.92c8.89,0,17.78-0.01,26.68-0.02
		c-6.69,14.11-13.39,28.21-20.09,42.33c-10.06,21.18-20.41,42.82-37.31,62.91c-9.79,11.63-22.06,22.62-35.8,31.12
		c-6.9,4.26-14.18,7.9-21.55,10.48c-6.52,2.28-17.82,4.86-16.08,12.14c2.68,11.15,19.29,19.26,33.78,18.43
		c25.61-1.47,56.63-22.63,67.13-45.52c16.83-35.55,33.84-71.08,50.5-106.63c11.04-25.22-5.6-45.7-33.62-43.81
		c4.63-7.76,8.02-15.57,10.47-23.28c15.62,0.28,30.44,3.06,39.88,11.2C799.26,425.2,802.37,447.66,791.5,470.8z"/>
	<path class="st1" d="M791.5,470.8c-13.76,29.67-28.15,59.39-42.11,89.08c-6.31,13.56-12.67,27.65-24.66,40.38
		c-22.59,25.47-60.42,44.92-89.71,43.1c-16.37-1.02-29.78-6.15-39.43-14.98c-8.56-7.84-6.56-19.97-12.17-29.41
		c-3.28-5.52-9.76-8.68-14.7-13.01c-16.28-14.27-14.78-40.53-5.9-65.9c8.86-25.38,24.28-51.07,34.83-76.58
		c9.03-0.01,18.08-0.02,27.11-0.03c4,0,8.22,0.05,10.69,1.99c3.91,3.08,1.64,10.53-4.13,15.41c-5.77,4.88-13.9,6.95-19.4,5.57
		c-7.64,15.02-14.27,30.06-19.83,45.03c-5.26,14.17-9.6,28.67-7.59,40.95c1.02,6.21,3.72,11.78,8.67,15.49
		c7.29,5.48,19.34,6.51,31.88,3.26c12.54-3.25,25.4-10.6,35.54-19.8c10.39-9.42,17.79-20.43,24.05-31.27
		c10.31-17.87,18.05-35.87,25.77-53.81c-6.81,1.55-12.95-0.67-13.84-5.63c-0.9-4.97,4.16-12.3,10.98-15.27
		c4.28-1.86,8.48-1.91,12.43-1.92c8.89,0,17.78-0.01,26.68-0.02c-6.69,14.11-13.39,28.21-20.09,42.33
		c-10.06,21.18-20.41,42.82-37.31,62.91c-9.79,11.63-22.06,22.62-35.8,31.12c-6.9,4.26-14.18,7.9-21.55,10.48
		c-6.52,2.28-17.82,4.86-16.08,12.14c2.68,11.15,19.29,19.26,33.78,18.43c25.61-1.47,56.63-22.63,67.13-45.52
		c16.83-35.55,33.84-71.08,50.5-106.63c11.04-25.22-5.6-45.7-33.62-43.81c4.63-7.76,8.02-15.57,10.47-23.28
		c15.62,0.28,30.44,3.06,39.88,11.2C799.26,425.2,802.37,447.66,791.5,470.8z"/>
	<path class="st1" d="M728.08,391.94c-0.03-0.04-0.03-0.08-0.05-0.12c-5.43-12.97-25.86-16.25-45.51-7.87
		c-9.8,3.8-18.28,10.83-25.83,17.87c-11.25,0.13-22.17-0.58-34.07,1.16c-36.86,4.79-78.54,34.27-94.27,66.37
		c-17.17,35.29-33.74,70.62-50.36,105.93c-11.4,24.23-7.84,47.86,9.52,59.78c10.84,8.27,27.7,10.02,44.87,9.54h47.75
		c-0.74-0.6-1.46-1.25-2.16-1.88c-7.04-6.46-9.03-14.68-10.56-21.32c-18.66,0-33.76-0.06-38.04-0.17
		c-20.17-0.66-32.73-14.15-30.36-32.08c0.63-8.2,5.76-17,9.75-25.53c12.93-27.15,25.8-54.3,38.63-81.43
		c3.95-8.2,7.12-16.67,13.96-24.53c5.01-6.27,11.38-11.98,18.38-16.83c10.65-7.34,22.86-12.67,34.37-14.79
		c0.55-0.09,1.09-0.19,1.63-0.27c9.97-1.32,19.07-0.5,28.57-0.69c-0.01,0.63-0.01,1.26,0.01,1.9c0.03,5.88,0.8,11.63,4.5,15.67
		c2.06,2.78,4.98,4.85,8.49,6.25c6.57,2.66,15.23,2.93,24.26,0.88c7.08-1.59,14.41-4.64,21.12-9.05
		C722.92,428.2,734.69,405.53,728.08,391.94z M699.35,418.24c-6.78,9.88-24.19,13.29-26.88,5.17c-3.12-5.89,4.18-16.12,13.52-19.61
		C698.67,398.32,707.42,408.05,699.35,418.24z"/>
</g>
</svg>
